<?xml version="1.0" encoding="utf-8"?>
<!-- Generator: Adobe Illustrator 25.0.0, SVG Export Plug-In . SVG Version: 6.00 Build 0)  -->
<svg version="1.1" id="Ebene_1" xmlns="http://www.w3.org/2000/svg" xmlns:xlink="http://www.w3.org/1999/xlink" x="0px" y="0px"
	 viewBox="0 0 18 22" style="enable-background:new 0 0 18 22;" xml:space="preserve">
<style type="text/css">
	.st0{fill:none;stroke:#000000;stroke-width:2;stroke-linecap:round;stroke-linejoin:round;}
	.st1{enable-background:new    ;}
</style>
<g id="Page-1">
	<g id="Artboard" transform="translate(-1442.000000, -1629.000000)">
		<g id="file-text" transform="translate(1443.000000, 1630.000000)">
			<path id="Shape" class="st0" d="M10,0H2C0.9,0,0,0.9,0,2v16c0,1.1,0.9,2,2,2h12c1.1,0,2-0.9,2-2V6L10,0z"/>
			<path id="Shape_1_" class="st0" d="M10,0v6h6"/>
			<path id="Shape_8_" class="st0" d="M4,11"/>
			<path id="Shape_7_" class="st0" d="M12,11"/>
		</g>
	</g>
</g>
<g class="st1">
	<path d="M6.7,17.7c0,0.1,0,0.1,0,0.2c0,0,0,0.1,0,0.1c0,0,0,0.1-0.1,0.1c0,0,0,0-0.1,0c-0.1,0-0.1,0-0.2,0s-0.1,0-0.2,0
		c-0.2,0-0.4,0-0.6-0.1c-0.1-0.1-0.3-0.2-0.4-0.3c-0.1-0.1-0.1-0.3-0.2-0.5C5,16.9,5,16.7,5,16.3v-0.8c0-0.2,0-0.3,0-0.4
		c0-0.1-0.1-0.2-0.1-0.3s-0.1-0.2-0.2-0.2c-0.1-0.1-0.2-0.1-0.3-0.1c0,0-0.1,0-0.1,0c0,0,0,0-0.1-0.1s0-0.1,0-0.1c0-0.1,0-0.1,0-0.2
		c0-0.1,0-0.1,0-0.2s0-0.1,0-0.1c0,0,0-0.1,0-0.1s0,0,0.1,0c0.2,0,0.4-0.1,0.5-0.3S5,12.9,5,12.6V12c0-0.3,0-0.6,0.1-0.8
		c0-0.2,0.1-0.4,0.2-0.5c0.1-0.1,0.2-0.3,0.4-0.3c0.1-0.1,0.3-0.1,0.6-0.1c0.1,0,0.1,0,0.2,0s0.1,0,0.2,0c0,0,0,0,0.1,0
		c0,0,0,0,0.1,0.1c0,0,0,0.1,0,0.1c0,0.1,0,0.1,0,0.2c0,0.1,0,0.1,0,0.2c0,0.1,0,0.1,0,0.1c0,0,0,0.1-0.1,0.1c0,0,0,0-0.1,0l-0.2,0
		c-0.1,0-0.1,0-0.2,0c0,0-0.1,0.1-0.1,0.1c0,0.1-0.1,0.1-0.1,0.3s0,0.3,0,0.5v0.6c0,0.2,0,0.4,0,0.6s-0.1,0.3-0.2,0.4
		c-0.1,0.1-0.2,0.2-0.3,0.3C5.4,14,5.3,14,5.1,14.1c0.2,0,0.3,0.1,0.4,0.2c0.1,0.1,0.2,0.2,0.3,0.3C5.9,14.7,5.9,14.8,6,15
		s0,0.3,0,0.6v0.7c0,0.2,0,0.4,0,0.5c0,0.1,0,0.2,0.1,0.3c0,0.1,0.1,0.1,0.1,0.1c0,0,0.1,0,0.2,0h0.2c0,0,0.1,0,0.1,0
		c0,0,0.1,0,0.1,0.1c0,0,0,0.1,0,0.1C6.7,17.5,6.7,17.6,6.7,17.7z"/>
	<path d="M13.9,14.1c0,0.1,0,0.2,0,0.2s0,0.1,0,0.1c0,0,0,0.1,0,0.1c0,0,0,0-0.1,0c-0.1,0-0.2,0.1-0.3,0.1c-0.1,0.1-0.1,0.2-0.2,0.3
		c0,0.1-0.1,0.2-0.1,0.4s0,0.3,0,0.5v0.6c0,0.3,0,0.6-0.1,0.8c0,0.2-0.1,0.4-0.2,0.5c-0.1,0.1-0.2,0.2-0.4,0.3
		c-0.1,0.1-0.3,0.1-0.6,0.1c-0.1,0-0.1,0-0.2,0c-0.1,0-0.1,0-0.2,0c0,0,0,0-0.1,0s0,0,0-0.1c0,0,0-0.1,0-0.1s0-0.1,0-0.2
		c0-0.1,0-0.1,0-0.2c0,0,0-0.1,0-0.1s0-0.1,0.1-0.1c0,0,0,0,0.1,0h0.2c0.1,0,0.1,0,0.2,0c0,0,0.1-0.1,0.1-0.1c0-0.1,0.1-0.1,0.1-0.3
		s0-0.3,0-0.5v-0.6c0-0.2,0-0.4,0-0.6c0-0.2,0.1-0.3,0.2-0.5c0.1-0.1,0.2-0.3,0.3-0.4c0.1-0.1,0.2-0.2,0.4-0.2
		c-0.2,0-0.3-0.1-0.4-0.2c-0.1-0.1-0.2-0.2-0.3-0.3s-0.1-0.2-0.2-0.4c0-0.1,0-0.3,0-0.5V12c0-0.2,0-0.4,0-0.5s0-0.2-0.1-0.3
		S12,11.1,12,11.1c0,0-0.1,0-0.2,0l-0.2,0c0,0-0.1,0-0.1,0c0,0-0.1,0-0.1-0.1c0,0,0-0.1,0-0.1c0-0.1,0-0.1,0-0.2c0-0.1,0-0.1,0-0.2
		s0-0.1,0-0.1c0,0,0-0.1,0.1-0.1c0,0,0,0,0.1,0c0.1,0,0.1,0,0.2,0c0.1,0,0.1,0,0.2,0c0.2,0,0.4,0,0.6,0.1s0.3,0.2,0.4,0.3
		c0.1,0.1,0.1,0.3,0.2,0.5c0,0.2,0.1,0.5,0.1,0.8v0.8c0,0.2,0,0.3,0,0.4c0,0.1,0.1,0.2,0.1,0.2s0.1,0.1,0.2,0.1
		c0.1,0,0.2,0.1,0.3,0.1c0,0,0,0,0.1,0s0,0,0.1,0.1c0,0,0,0.1,0,0.1C13.9,13.9,13.9,14,13.9,14.1z"/>
</g>
</svg>
