<?xml version="1.0" encoding="utf-8"?>
<!-- Generator: Adobe Illustrator 25.0.0, SVG Export Plug-In . SVG Version: 6.00 Build 0)  -->
<svg version="1.1" id="Ebene_1" xmlns="http://www.w3.org/2000/svg" xmlns:xlink="http://www.w3.org/1999/xlink" x="0px" y="0px"
	 viewBox="0 0 18 22" style="enable-background:new 0 0 18 22;" xml:space="preserve">
<style type="text/css">
	.st0{fill:none;stroke:#000000;stroke-width:2;stroke-linecap:round;stroke-linejoin:round;}
	.st1{enable-background:new    ;}
</style>
<g id="Page-1">
	<g id="Artboard" transform="translate(-1442.000000, -1629.000000)">
		<g id="file-text" transform="translate(1443.000000, 1630.000000)">
			<path id="Shape" class="st0" d="M10,0H2C0.9,0,0,0.9,0,2v16c0,1.1,0.9,2,2,2h12c1.1,0,2-0.9,2-2V6L10,0z"/>
			<path id="Shape_1_" class="st0" d="M10,0v6h6"/>
			<path id="Shape_8_" class="st0" d="M4,11"/>
			<path id="Shape_7_" class="st0" d="M12,11"/>
		</g>
	</g>
</g>
<g class="st1">
	<path d="M5.3,16.5c-0.7-0.7-2-1.8-2-1.8c-0.1-0.1-0.1-0.2-0.1-0.3c0-0.1,0-0.2,0.1-0.3c0,0,1.3-1.2,2-1.8c0.2-0.2,0.5-0.2,0.7,0
		c0.2,0.2,0.2,0.5,0,0.6l-1.6,1.5L6,15.9c0.2,0.2,0.2,0.5,0,0.6C5.8,16.7,5.5,16.7,5.3,16.5z"/>
	<path d="M6.7,16l3.6-5.4c0.1-0.2,0.4-0.3,0.7-0.2c0.2,0.1,0.3,0.4,0.2,0.6l-3.6,5.4c-0.2,0.2-0.4,0.3-0.7,0.1
		C6.6,16.5,6.5,16.2,6.7,16z"/>
	<path d="M11.9,15.9l1.7-1.5l-1.6-1.5c-0.2-0.2-0.2-0.5,0-0.6c0.2-0.2,0.5-0.2,0.7,0c0.7,0.7,2,1.8,2,1.8c0.1,0.1,0.1,0.2,0.1,0.3
		c0,0.1,0,0.2-0.1,0.3c0,0-1.3,1.1-2,1.8c-0.2,0.2-0.5,0.2-0.7,0C11.7,16.3,11.7,16,11.9,15.9z"/>
</g>
</svg>
