<?xml version="1.0" encoding="utf-8"?>
<!-- Generator: Adobe Illustrator 25.0.0, SVG Export Plug-In . SVG Version: 6.00 Build 0)  -->
<svg version="1.1" id="Ebene_1" xmlns="http://www.w3.org/2000/svg" xmlns:xlink="http://www.w3.org/1999/xlink" x="0px" y="0px"
	 viewBox="0 0 18 22" style="enable-background:new 0 0 18 22;" xml:space="preserve">
<style type="text/css">
	.st0{fill:none;stroke:#000000;stroke-width:2;stroke-linecap:round;stroke-linejoin:round;}
	.st1{fill:none;stroke:#000000;stroke-miterlimit:10;}
</style>
<g id="Page-1">
	<g id="Artboard" transform="translate(-1442.000000, -1629.000000)">
		<g id="file-text" transform="translate(1443.000000, 1630.000000)">
			<path id="Shape" class="st0" d="M10,0H2C0.9,0,0,0.9,0,2v16c0,1.1,0.9,2,2,2h12c1.1,0,2-0.9,2-2V6L10,0z"/>
			<path id="Shape_1_" class="st0" d="M10,0v6h6"/>
			<path id="Shape_8_" class="st0" d="M4,11"/>
			<path id="Shape_7_" class="st0" d="M12,11"/>
		</g>
	</g>
</g>
<path class="st1" d="M1.6,17.9c1.9-2.5,4.2-5.1,6-7.6l2.6,3.5l1.6-1.6c1.9,2.3,3.6,4.2,5.2,6.3c-0.2,1.1,0.1,2.5-1.6,2.5
	C12.9,21,4.5,20.7,2,20.7c-0.9,0-0.6-1.6-0.6-2.1C1.5,18.3,1.4,18.1,1.6,17.9z"/>
</svg>
