<?xml version="1.0" encoding="utf-8"?>
<!-- Generator: Adobe Illustrator 25.0.0, SVG Export Plug-In . SVG Version: 6.00 Build 0)  -->
<svg version="1.1" id="Ebene_1" xmlns="http://www.w3.org/2000/svg" xmlns:xlink="http://www.w3.org/1999/xlink" x="0px" y="0px"
	 viewBox="0 0 18 22" style="enable-background:new 0 0 18 22;" xml:space="preserve">
<style type="text/css">
	.st0{fill:none;stroke:#000000;stroke-width:2;stroke-linecap:round;stroke-linejoin:round;}
	.st1{enable-background:new    ;}
</style>
<g id="Page-1">
	<g id="Artboard" transform="translate(-1442.000000, -1629.000000)">
		<g id="file-text" transform="translate(1443.000000, 1630.000000)">
			<path id="Shape" class="st0" d="M10,0H2C0.9,0,0,0.9,0,2v16c0,1.1,0.9,2,2,2h12c1.1,0,2-0.9,2-2V6L10,0z"/>
			<path id="Shape_1_" class="st0" d="M10,0v6h6"/>
			<path id="Shape_8_" class="st0" d="M4,11"/>
			<path id="Shape_7_" class="st0" d="M12,11"/>
		</g>
	</g>
</g>
<g class="st1">
	<path d="M6.3,16.2c0,0.2-0.2,0.4-0.5,0.4h0c-1,0-1.8-0.8-1.8-1.8c0-0.5-0.4-0.9-0.9-0.9c-0.3,0-0.5-0.2-0.5-0.4
		c0-0.2,0.2-0.4,0.5-0.4C3.6,13,4,12.6,4,12.1c0-1,0.8-1.8,1.8-1.8c0.3,0,0.5,0.2,0.5,0.4c0,0.2-0.2,0.4-0.5,0.4h0
		c-0.2,0-0.5,0.1-0.6,0.3c-0.2,0.2-0.3,0.4-0.3,0.7c0,0.5-0.2,1-0.6,1.4c0.4,0.3,0.6,0.8,0.6,1.4c0,0.3,0.1,0.5,0.3,0.7
		c0.2,0.2,0.4,0.3,0.6,0.3C6,15.8,6.3,15.9,6.3,16.2z"/>
	<path d="M7,16.5c-0.1-0.1-0.1-0.2-0.1-0.3c0-0.1,0-0.2,0.1-0.3c0.1-0.1,0.2-0.1,0.3-0.1c0.1,0,0.3,0,0.3,0.1
		c0.1,0.1,0.1,0.2,0.1,0.3c0,0.1,0,0.2-0.1,0.3c-0.1,0.1-0.2,0.1-0.3,0.1C7.2,16.6,7.1,16.6,7,16.5z"/>
	<path d="M8.6,16.5c-0.1-0.1-0.1-0.2-0.1-0.3c0-0.1,0-0.2,0.1-0.3c0.1-0.1,0.2-0.1,0.3-0.1c0.1,0,0.3,0,0.3,0.1
		c0.1,0.1,0.1,0.2,0.1,0.3c0,0.1,0,0.2-0.1,0.3c-0.1,0.1-0.2,0.1-0.3,0.1C8.8,16.6,8.7,16.6,8.6,16.5z"/>
	<path d="M10.3,16.5c-0.1-0.1-0.1-0.2-0.1-0.3c0-0.1,0-0.2,0.1-0.3c0.1-0.1,0.2-0.1,0.3-0.1c0.1,0,0.3,0,0.3,0.1
		c0.1,0.1,0.1,0.2,0.1,0.3c0,0.1,0,0.2-0.1,0.3c-0.1,0.1-0.2,0.1-0.3,0.1C10.5,16.6,10.4,16.6,10.3,16.5z"/>
	<path d="M12.8,15.5c0.2-0.2,0.3-0.4,0.3-0.7c0-0.5,0.2-1,0.6-1.4c-0.4-0.4-0.6-0.9-0.6-1.4c0-0.3-0.1-0.5-0.3-0.7
		c-0.2-0.2-0.4-0.3-0.6-0.3h0c-0.3,0-0.5-0.2-0.5-0.4c0-0.2,0.2-0.4,0.5-0.4c1,0,1.8,0.8,1.8,1.8c0,0.5,0.4,0.9,0.9,0.9
		c0.3,0,0.5,0.2,0.5,0.4c0,0.2-0.2,0.4-0.5,0.4c-0.5,0-0.9,0.4-0.9,0.9c0,1-0.8,1.8-1.8,1.8h0c-0.2,0-0.5-0.2-0.5-0.4
		c0-0.3,0.3-0.4,0.5-0.4C12.4,15.8,12.6,15.7,12.8,15.5z"/>
</g>
</svg>
