<?xml version="1.0" encoding="utf-8"?>
<!-- Generator: Adobe Illustrator 25.0.0, SVG Export Plug-In . SVG Version: 6.00 Build 0)  -->
<svg version="1.1" id="Ebene_1" xmlns="http://www.w3.org/2000/svg" xmlns:xlink="http://www.w3.org/1999/xlink" x="0px" y="0px"
	 viewBox="0 0 18 22" style="enable-background:new 0 0 18 22;" xml:space="preserve">
<style type="text/css">
	.st0{fill:none;stroke:#000000;stroke-width:2;stroke-linecap:round;stroke-linejoin:round;}
	.st1{fill:#FFFFFF;stroke:#000000;stroke-width:2;stroke-miterlimit:10;}
	.st2{fill:none;stroke:#000000;stroke-linecap:round;stroke-linejoin:round;}
</style>
<g id="Page-1">
	<g id="Artboard" transform="translate(-1442.000000, -1629.000000)">
		<g id="file-text" transform="translate(1443.000000, 1630.000000)">
			<path id="Shape" class="st0" d="M10,0H2C0.9,0,0,0.9,0,2v16c0,1.1,0.9,2,2,2h12c1.1,0,2-0.9,2-2V6L10,0z"/>
			<path id="Shape_1_" class="st0" d="M10,0v6h6"/>
			<path id="Shape_2_" class="st0" d="M12,11H4"/>
			<path id="Shape_3_" class="st0" d="M12,15H4"/>
			<path id="Shape_4_" class="st0" d="M6,7H4"/>
		</g>
	</g>
</g>
<g id="upload">
	<path class="st1" d="M12,11c2.8,0,5,2.2,5,5c0,1,0,2.4,0,3c0,1.1-1,2-2,2c-0.9,0-2,0-3,0c-2.8,0-5-2.2-5-5S9.2,11,12,11z"/>
	<path id="Shape_5_" class="st2" d="M12,18.5v-5"/>
	<path id="Shape_6_" class="st2" d="M14.6,15.8L12,13.5c-0.1,0.1-2.4,2.3-2.4,2.3"/>
</g>
</svg>
